<svg width="62" height="55" viewBox="0 0 62 55" fill="none" xmlns="http://www.w3.org/2000/svg">
<path d="M15.3387 17.9625L19.7097 37.0142H52.3949L56.7658 17.9625H26.9211H15.3387Z" fill="#F8DA7F"/>
<path d="M55.1026 40.3989H17.0019C16.6858 40.3989 16.4116 40.1802 16.3419 39.8722L10.4234 13.8779C9.82435 11.2453 7.52006 9.40739 4.82044 9.40739H1.25705C0.883376 9.40739 0.580109 9.10412 0.580109 8.73045C0.580109 8.35678 0.883376 8.05352 1.25705 8.05352H4.82044C8.1557 8.05352 11.0029 10.3246 11.7435 13.5773L17.5414 39.0457H54.5617L59.9786 15.2554H26.9211C26.5474 15.2554 26.2441 14.9522 26.2441 14.5785C26.2441 14.2048 26.5474 13.9016 26.9211 13.9016H60.8275C61.0339 13.9016 61.2282 13.9957 61.3561 14.1561C61.4848 14.3172 61.5335 14.5277 61.4868 14.7288L55.7619 39.8722C55.6922 40.1802 55.4187 40.3989 55.1026 40.3989Z" fill="black"/>
<path d="M13.7384 49.7366C10.791 49.7366 8.39265 47.3389 8.39265 44.3915C8.39265 41.4441 10.7904 39.0457 13.7384 39.0457H55.06C55.4343 39.0457 55.7369 39.3483 55.7369 39.7226C55.7369 40.097 55.4343 40.3996 55.06 40.3996H13.7384C11.5377 40.3996 9.74653 42.1908 9.74653 44.3915C9.74653 46.5922 11.5377 48.3827 13.7384 48.3827C14.1121 48.3827 14.4154 48.6853 14.4154 49.0596C14.4154 49.434 14.1121 49.7366 13.7384 49.7366Z" fill="black"/>
<path d="M50.2835 54.0304C47.5433 54.0304 45.3135 51.8005 45.3135 49.0596C45.3135 46.3187 47.5433 44.0889 50.2835 44.0889C53.0244 44.0889 55.2543 46.3187 55.2543 49.0596C55.2543 51.8005 53.0244 54.0304 50.2835 54.0304ZM50.2835 45.4428C48.29 45.4428 46.6673 47.0647 46.6673 49.0596C46.6673 51.0546 48.2893 52.6765 50.2835 52.6765C52.2778 52.6765 53.9004 51.0546 53.9004 49.0596C53.9004 47.0647 52.2778 45.4428 50.2835 45.4428Z" fill="black"/>
<path d="M23.5682 54.0304C20.828 54.0304 18.5981 51.8005 18.5981 49.0596C18.5981 46.3187 20.828 44.0889 23.5682 44.0889C26.3091 44.0889 28.5389 46.3187 28.5389 49.0596C28.5389 51.8005 26.3091 54.0304 23.5682 54.0304ZM23.5682 45.4428C21.5739 45.4428 19.952 47.0647 19.952 49.0596C19.952 51.0546 21.5739 52.6765 23.5682 52.6765C25.5625 52.6765 27.1851 51.0546 27.1851 49.0596C27.1851 47.0647 25.5625 45.4428 23.5682 45.4428Z" fill="black"/>
<path d="M39.9 49.7366H27.862C27.4883 49.7366 27.1851 49.434 27.1851 49.0596C27.1851 48.6853 27.4883 48.3827 27.862 48.3827H39.9C40.2743 48.3827 40.5769 48.6853 40.5769 49.0596C40.5769 49.434 40.2743 49.7366 39.9 49.7366Z" fill="black"/>
<path d="M55.0593 15.2548H37.1543C36.7799 15.2548 36.4774 14.9515 36.4774 14.5778V5.22528C36.4774 4.85161 36.7799 4.54834 37.1543 4.54834H55.0593C55.4336 4.54834 55.7362 4.85161 55.7362 5.22528V14.5778C55.7362 14.9522 55.4336 15.2548 55.0593 15.2548ZM37.8312 13.9009H54.3823V5.90222H37.8312V13.9009Z" fill="black"/>
<path d="M19.4064 15.2548C19.0327 15.2548 18.7294 14.9515 18.7294 14.5778V0.81097C18.7294 0.437301 19.0327 0.134033 19.4064 0.134033H42.8995C43.2738 0.134033 43.5764 0.437301 43.5764 0.81097V5.22527C43.5764 5.59894 43.2738 5.90221 42.8995 5.90221C42.5251 5.90221 42.2225 5.59894 42.2225 5.22527V1.48791H20.0833V14.5778C20.0833 14.9522 19.78 15.2548 19.4064 15.2548Z" fill="black"/>
<path d="M52.3515 7.93303H39.8621V11.8701H52.3515V7.93303Z" fill="#F8DA7F"/>
</svg>
